<?xml version="1.0" encoding="utf-8"?>
<!-- Generator: Adobe Illustrator 21.1.0, SVG Export Plug-In . SVG Version: 6.00 Build 0)  -->
<svg version="1.1" id="Layer_1" xmlns="http://www.w3.org/2000/svg" xmlns:xlink="http://www.w3.org/1999/xlink" x="0px" y="0px"
	 viewBox="0 0 750 750" style="enable-background:new 0 0 750 750;" xml:space="preserve">
<style type="text/css">
	.st0{fill:#EA7D1A;}
	.st1{clip-path:url(#SVGID_2_);}
	.st2{clip-path:url(#SVGID_4_);}
	.st3{fill:#2B2825;}
</style>
<g>
	<circle class="st0" cx="374.5" cy="376.5" r="359"/>
	<path class="st0" d="M374.5,745C171.3,745,6,579.7,6,376.5S171.3,8,374.5,8S743,173.3,743,376.5S577.7,745,374.5,745z M374.5,27
		C181.8,27,25,183.8,25,376.5S181.8,726,374.5,726C567.2,726,724,569.2,724,376.5S567.2,27,374.5,27z"/>
</g>
<g>
	<defs>
		
			<ellipse id="SVGID_1_" transform="matrix(0.9991 -4.318369e-02 4.318369e-02 0.9991 -15.9093 16.5233)" cx="374.5" cy="376.5" rx="359" ry="359"/>
	</defs>
	<clipPath id="SVGID_2_">
		<use xlink:href="#SVGID_1_"  style="overflow:visible;"/>
	</clipPath>
	<g class="st1">
		<defs>
			<polygon id="SVGID_3_" points="956.5,818.8 -30,861.4 -175.9,26 920.2,-21.4 			"/>
		</defs>
		<clipPath id="SVGID_4_">
			<use xlink:href="#SVGID_3_"  style="overflow:visible;"/>
		</clipPath>
		<g class="st2">
			<path class="st3" d="M-40.3,431.7C-92.2,432.3-230,319-230,319l-222.3,115.4l-105,173.3l28.5,347.6l124.4,170.2l213.5-9.2
				l-69.7-64.5l-7.6-176.9l-46-116l0.1-0.1l88,100.7l71.4-3l81-166.4l0.9,0l-37.7,200.7l6.3,141.1l48.1,78.7l179.7-7.8l-68-64.6
				L119.5,905l241.2-409c53.6-5.6,130.3,1.3,179.7-18.8c39.1-15.9,50.4-74.6,68.8-115.7l-143.7-43.3c-5.8-21.3-13.1-37.7-27.7-47.7
				c-16.9-11.6-62.4-7.3-82.2-8.9c-50.9-4-78.7-12.6-123.6-38.4l-34.3,42.8c0,0,28.2,16,25.7,24.5 M390.8,326.1l-27.5-34
				c41.6-3.9,69.7-20.2,83.3,26.4L390.8,326.1z"/>
			<polygon class="st3" points="-224.4,896.6 -153.1,893.5 -147.2,1035.2 -99.4,1113.3 -141.6,1115.1 -218,1050 			"/>
		</g>
	</g>
</g>
<path class="st3" d="M578.9,129.3c1.8,3.6,4.3,13,7.5,15.3c3.5,2.4,12.5,1.8,16.8,2.4c-2.9,2.8-11.1,8.1-12.2,11.9
	c-1.2,4.1,2.1,12.5,2.9,16.8c-3.6-1.9-11.1-8-15.1-7.9c-4.2,0.1-11.2,5.9-15.1,7.9c0.7-4,4.2-13.1,2.9-16.8
	c-1.4-4-9.1-8.9-12.2-11.9c4-0.6,13.7,0,16.8-2.4C574.8,141.9,577,133.1,578.9,129.3z"/>
<path class="st3" d="M532,152.4c1.1,2.3,2.7,8.3,4.8,9.7c2.2,1.5,8,1.2,10.7,1.6c-1.9,1.8-7.1,5.2-7.8,7.6c-0.8,2.6,1.4,8,1.8,10.7
	c-2.3-1.2-7.1-5.1-9.6-5.1c-2.7,0.1-7.2,3.8-9.6,5.1c0.4-2.6,2.7-8.3,1.8-10.7c-0.9-2.5-5.8-5.6-7.8-7.6c2.6-0.4,8.8,0,10.7-1.6
	C529.4,160.5,530.8,154.9,532,152.4z"/>
</svg>
