<svg id="Layer_1" data-name="Layer 1" xmlns="http://www.w3.org/2000/svg" xmlns:xlink="http://www.w3.org/1999/xlink" viewBox="0 0 1026.74 613.21"><defs><style>.cls-1{fill:none;}.cls-2{clip-path:url(#clip-path);}.cls-3{fill:#cac8c8;}.cls-4{clip-path:url(#clip-path-2);}.cls-5{fill:#a43119;}</style><clipPath id="clip-path" transform="translate(196.4 -106)"><rect class="cls-1" x="-217.06" y="-39.93" width="534.23" height="585.93" transform="translate(100.11 506.07) rotate(-180)"/></clipPath><clipPath id="clip-path-2" transform="translate(196.4 -106)"><rect class="cls-1" x="316.77" y="-39.93" width="534.23" height="585.93"/></clipPath></defs><title>BearsLogoMini</title><g class="cls-2"><path class="cls-3" d="M11,217.24,49.82,295,188,303.41,409.06,564l7.63,107.62-45.4,47H496.63l31.11-56.24.15-98.38L495.64,425.42h.64L557.64,538.8l49.82,0L665.66,466l.08,0-28.55,82.12V671.58l-46.61,47H739.47l81.47-122.2,9.4-242.84L752,236,593.77,162.41l-157,13.35,29.44-29.15-2.47-3.15L356.64,171.84l16-18.77-2.46-3.15-53.63,14.54-39.25-8.33,17.13-17.81L266.16,106l-46.83,29.77L117.49,148.31l-7.83,34.47Zm111.86-34.82,9.63-23.28L180,161.51,161.88,186Z" transform="translate(196.4 -106)"/><polygon class="cls-3" points="803.71 458.6 753.98 458.6 754.11 557.4 723.17 613.21 752.63 613.21 803.84 565.63 803.71 458.6"/></g><g class="cls-4"><path class="cls-5" d="M524.28,182.77l-7.83-34.47L414.61,135.77,367.78,106l-28.26,32.33,17.13,17.81-39.25,8.33-53.63-14.54-2.46,3.15,16,18.77L170.23,143.45l-2.47,3.15,29.44,29.15-157-13.35L-118.06,236l-78.33,117.5,9.4,242.84,81.47,122.2H43.36l-46.61-47V548.21L-31.8,466.09l.08,0,58.2,72.73,49.82,0,61.36-113.39h.64L106,564l.15,98.38,31.11,56.24H262.64l-45.4-47L224.88,564,445.95,303.41,584.12,295,623,217.24ZM472.06,186l-18.11-24.53,47.55-2.36,9.63,23.28Z" transform="translate(196.4 -106)"/><polygon class="cls-5" points="223.03 458.6 272.76 458.6 272.62 557.4 303.56 613.21 274.1 613.21 222.89 565.63 223.03 458.6"/></g></svg>