<?xml version="1.0" encoding="utf-8"?>
<!-- Generator: Adobe Illustrator 21.1.0, SVG Export Plug-In . SVG Version: 6.00 Build 0)  -->
<svg version="1.1" id="Layer_1" xmlns="http://www.w3.org/2000/svg" xmlns:xlink="http://www.w3.org/1999/xlink" x="0px" y="0px"
	 viewBox="0 0 1026.7 613.2" style="enable-background:new 0 0 1026.7 613.2;" xml:space="preserve">
<style type="text/css">
	.st0{clip-path:url(#SVGID_2_);}
	.st1{fill:#CAC8C8;}
	.st2{clip-path:url(#SVGID_4_);}
	.st3{fill:#A43119;}
</style>
<title>BearsLogoMini</title>
<g>
	<defs>
		<polygon id="SVGID_1_" points="517.7,573.3 5.2,444.6 24.7,9.6 517.2,8 		"/>
	</defs>
	<clipPath id="SVGID_2_">
		<use xlink:href="#SVGID_1_"  style="overflow:visible;"/>
	</clipPath>
	<g class="st0">
		<path class="st1" d="M18.8,188.5l63,126.2l224.3,13.6l358.8,422.9l12.4,174.7l-73.7,76.3H807l50.5-91.3l0.2-159.7l-52.3-224.9h1
			l99.6,184h80.9l94.5-118.1h0.1l-46.3,133.3v200.4l-75.6,76.3h241.6l132.2-198.3l15.3-394.1L1221.4,219L964.6,99.5l-254.8,21.7
			l47.8-47.3l-4-5.1l-173.8,46.1l26-30.5l-4-5.1l-87,23.6L451,89.4l27.8-28.9L432.9,8l-76,48.3L191.7,76.7l-12.7,55.9L18.8,188.5z
			 M200.4,132L216,94.2l77.1,3.8l-29.4,39.7L200.4,132z"/>
		<polygon class="st1" points="986.6,752.3 905.9,752.3 906.1,912.6 855.9,1003.2 903.7,1003.2 986.8,926 		"/>
	</g>
</g>
<g>
	<defs>
		<polygon id="SVGID_3_" points="517.2,8 1014.6,8 1026,462.4 518,582.5 		"/>
	</defs>
	<clipPath id="SVGID_4_">
		<use xlink:href="#SVGID_3_"  style="overflow:visible;"/>
	</clipPath>
	<g class="st2">
		<path class="st3" d="M851.8,132.6l-12.7-55.9L673.8,56.3L597.8,8L552,60.5l27.8,28.9l-63.7,13.5l-87-23.6l-4,5.1l26,30.5
			L277.2,68.8l-4,5.1l47.8,47.3L66.2,99.5L-190.6,219l-127.1,190.7l15.3,394.1l132.2,198.3H71.4l-75.6-76.3V725.7l-46.3-133.3h0.1
			l94.5,118h80.9l99.6-184h1L173,751.3l0.2,159.7l50.5,91.3h203.5l-73.7-76.3l12.4-174.7l358.8-422.9l224.2-13.6l63.1-126.2
			L851.8,132.6z M767.1,137.8L737.7,98l77.2-3.8l15.6,37.8L767.1,137.8z"/>
		<polygon class="st3" points="44.2,752.3 124.9,752.3 124.7,912.6 174.9,1003.2 127.1,1003.2 44,926 		"/>
	</g>
</g>
</svg>
