<?xml version="1.0" encoding="utf-8"?>
<!-- Generator: Adobe Illustrator 21.1.0, SVG Export Plug-In . SVG Version: 6.00 Build 0)  -->
<svg version="1.1" id="Layer_1" xmlns="http://www.w3.org/2000/svg" xmlns:xlink="http://www.w3.org/1999/xlink" x="0px" y="0px"
	 viewBox="0 0 750 750" style="enable-background:new 0 0 750 750;" xml:space="preserve">
<style type="text/css">
	.st0{fill:#394951;}
	.st1{clip-path:url(#SVGID_2_);}
	.st2{clip-path:url(#SVGID_4_);}
	.st3{fill:#EE4445;}
</style>
<g>
	<circle class="st0" cx="376" cy="376" r="359.5"/>
	<path class="st0" d="M376,745C172.5,745,7,579.5,7,376S172.5,7,376,7c203.5,0,369,165.5,369,369S579.5,745,376,745z M376,26.1
		C183,26.1,26.1,183,26.1,376S183,725.9,376,725.9c193,0,349.9-157,349.9-349.9S568.9,26.1,376,26.1z"/>
</g>
<g>
	<defs>
		
			<ellipse id="SVGID_1_" transform="matrix(0.9991 -4.318369e-02 4.318369e-02 0.9991 -15.8863 16.5873)" cx="376" cy="376" rx="359.5" ry="359.5"/>
	</defs>
	<clipPath id="SVGID_2_">
		<use xlink:href="#SVGID_1_"  style="overflow:visible;"/>
	</clipPath>
	<g class="st1">
		<defs>
			<polygon id="SVGID_3_" points="958.8,818.9 -29.1,861.6 -175.2,25 922.4,-22.4 			"/>
		</defs>
		<clipPath id="SVGID_4_">
			<use xlink:href="#SVGID_3_"  style="overflow:visible;"/>
		</clipPath>
		<g class="st2">
			<path class="st3" d="M-39.4,431.3c-52,0.6-189.9-112.9-189.9-112.9L-451.9,434l-105.2,173.6l28.6,348.1l124.6,170.4l213.8-9.2
				l-69.8-64.6l-7.7-177.2l-46.1-116.1l0.1-0.1l88.1,100.8l71.5-3L-73,690l0.9,0l-37.7,200.9l6.3,141.3l48.2,78.8l180-7.8
				l-68.1-64.7l64-133.3l241.5-409.6c53.7-5.6,130.5,1.3,179.9-18.8C581.2,461,592.6,402.2,611,361l-143.9-43.4
				c-5.8-21.4-13.1-37.7-27.7-47.8c-16.9-11.6-62.5-7.3-82.3-8.9c-51-4-78.8-12.6-123.7-38.5l-34.3,42.8c0,0,28.2,16,25.7,24.5
				 M392.3,325.5l-27.5-34.1c41.6-3.9,69.8-20.2,83.4,26.5L392.3,325.5z"/>
			<polygon class="st3" points="-223.8,896.8 -152.4,893.7 -146.4,1035.6 -98.5,1113.8 -140.8,1115.6 -217.3,1050.5 			"/>
		</g>
	</g>
</g>
<path class="st3" d="M576.5,128.4c1.7,3.5,4.1,12.6,7.3,14.8c3.4,2.3,12.2,1.8,16.3,2.4c-2.8,2.7-10.7,7.8-11.8,11.5
	c-1.2,3.9,2.1,12.1,2.8,16.2c-3.5-1.8-10.8-7.8-14.6-7.7c-4.1,0.1-10.9,5.7-14.6,7.7c0.7-3.9,4.1-12.7,2.8-16.2
	c-1.4-3.9-8.8-8.6-11.8-11.5c3.9-0.6,13.3,0,16.3-2.4C572.5,140.7,574.6,132.2,576.5,128.4z"/>
<path class="st3" d="M531.1,150.9c1.1,2.3,2.6,8.1,4.7,9.4c2.2,1.5,7.8,1.1,10.4,1.5c-1.8,1.8-6.8,5-7.5,7.3
	c-0.7,2.5,1.3,7.7,1.8,10.4c-2.2-1.2-6.9-5-9.3-4.9c-2.6,0.1-6.9,3.6-9.3,4.9c0.4-2.5,2.6-8.1,1.8-10.4c-0.9-2.5-5.6-5.5-7.5-7.3
	c2.5-0.4,8.5,0,10.4-1.5C528.5,158.7,529.9,153.3,531.1,150.9z"/>
</svg>
